<svg height="800" viewBox="0 0 32 32" width="800" xmlns="http://www.w3.org/2000/svg"><path d="m30-.003h-28c-1.099 0-2 .9-2 2v28.006c0 1.099.9 2 2 2h28c1.099 0 2-.901 2-2v-28.006c0-1.099-.901-2-2-2zm0 30.006h-28v-28.006h28zm-23-18.993h2v2c0 .552.448 1 1 1s1-.448 1-1v-2h2c.552 0 1-.448 1-1s-.448-1-1-1h-2v-2c0-.552-.448-1-1-1s-1 .448-1 1v2h-2c-.552 0-1 .448-1 1s.448 1 1 1zm6.536 7.464c-.39-.39-1.024-.391-1.414 0l-2.122 2.121-2.122-2.121c-.391-.39-1.024-.39-1.415 0s-.391 1.024 0 1.415l2.121 2.121-2.121 2.121c-.391.39-.391 1.024 0 1.415s1.024.39 1.415 0l2.122-2.12 2.122 2.121c.39.39 1.024.39 1.414 0s.39-1.024 0-1.415l-2.121-2.121 2.121-2.121c.39-.391.39-1.024 0-1.415zm5.464-7.465h6c.552 0 1-.448 1-1s-.448-1-1-1h-6c-.552 0-1 .448-1 1s.448 1 1 1zm0 10h6c.552 0 1-.448 1-1s-.448-1-1-1h-6c-.552 0-1 .448-1 1s.448 1 1 1zm0 4h6c.552 0 1-.448 1-1s-.448-1-1-1h-6c-.552 0-1 .448-1 1s.448 1 1 1z"/></svg>